<svg width="512px" height="512px" xmlns="http://www.w3.org/2000/svg" xmlns:svg="http://www.w3.org/2000/svg" preserveAspectRatio="xMidYMid meet" version="1.0" transform="rotate(0) scale(1, 1)">
 <g class="layer">
  <title>Layer 1</title>
  <g fill="#000000" id="svg_1" transform="matrix(0.1 0 0 -0.1 0 0)">
   <path d="m2278,-1707l-3,-568l-567,-3l-568,-2l0,-280l0,-280l568,-2l567,-3l3,-567l2,-568l280,0l280,0l2,567l3,568l568,3l567,2l0,280l0,280l-567,2l-568,3l-3,568l-2,567l-280,0l-280,0l-2,-567z" fill="#3e69f8" id="svg_2"/>
  </g>
 </g>
</svg>